<svg width="48" height="50" viewBox="0 0 48 50" fill="none" xmlns="http://www.w3.org/2000/svg">
<path d="M46.0157 27.8505C46.0787 27.3006 46.1339 26.7507 46.1811 26.2008C46.2283 25.651 46.252 25.1011 46.252 24.5512C46.252 21.4135 45.6535 18.4215 44.4567 15.5749C43.2598 12.7284 41.6614 10.2782 39.6614 8.22415C37.6614 6.17014 35.2756 4.53663 32.5039 3.32363C29.7323 2.11062 26.8346 1.50412 23.811 1.50412C22.8032 1.50412 21.7638 1.56882 20.6929 1.6982C18.6142 0.566068 16.3937 0 14.0315 0C10.1575 0 6.85039 1.40708 4.11024 4.22125C1.37008 7.03541 0 10.4318 0 14.4105C0 16.8041 0.535433 19.036 1.6063 21.1062C1.54331 21.6885 1.48819 22.2626 1.44094 22.8287C1.3937 23.3948 1.37008 23.9689 1.37008 24.5512C1.37008 27.0419 1.74803 29.4598 2.50394 31.8049C3.25984 34.1501 4.33071 36.2688 5.71654 38.161C7.10236 40.0533 8.71654 41.7111 10.5591 43.1344C12.4016 44.5576 14.4646 45.6574 16.748 46.4337C19.0315 47.21 21.3858 47.5982 23.811 47.5982C24.252 47.5982 24.6929 47.582 25.1339 47.5497C25.5748 47.5173 26 47.4688 26.4094 47.4041C28.7087 48.9244 31.2283 49.6846 33.9685 49.6846C37.8425 49.6846 41.1496 48.2775 43.8898 45.4633C46.6299 42.6492 48 39.2528 48 35.2741C48 32.6217 47.3386 30.1471 46.0157 27.8505ZM41.622 43.1344C40.5827 44.1694 39.4095 44.97 38.1024 45.5361C36.7953 46.1022 35.4173 46.3852 33.9685 46.3852C31.7953 46.3852 29.811 45.7706 28.0157 44.5414L27.2126 44.0077L26.2677 44.1048C25.4803 44.2341 24.6614 44.2988 23.811 44.2988C21.1968 44.2988 18.7087 43.7813 16.3465 42.7462C14.0472 41.7434 12.0079 40.3283 10.2283 38.5007C8.44882 36.6731 7.07087 34.5786 6.09449 32.2173C5.08661 29.7913 4.58268 27.2359 4.58268 24.5512C4.58268 23.4837 4.66142 22.4325 4.8189 21.3974L4.96063 20.524L4.53543 19.7477C4.09449 18.939 3.76378 18.0818 3.54331 17.1761C3.32283 16.2704 3.2126 15.3485 3.2126 14.4105C3.2126 11.3375 4.26772 8.71744 6.37795 6.55021C7.41732 5.48277 8.59055 4.6741 9.89764 4.12421C11.2047 3.57431 12.5827 3.29937 14.0315 3.29937C14.9449 3.29937 15.8504 3.42067 16.748 3.66327C17.6457 3.90587 18.5039 4.25359 19.3228 4.70645L20.0787 5.14313L20.9764 4.99757C21.4173 4.93288 21.8819 4.88436 22.3701 4.85201C22.8583 4.81966 23.3386 4.80349 23.811 4.80349C26.4252 4.80349 28.9134 5.32104 31.2756 6.35613C33.5748 7.35888 35.622 8.76596 37.4173 10.5774C38.2992 11.4831 39.0866 12.4616 39.7795 13.5128C40.4724 14.5641 41.0551 15.6882 41.5276 16.885C42.5354 19.311 43.0394 21.8664 43.0394 24.5512C43.0394 24.8746 43.0315 25.2143 43.0157 25.5701C43 25.9259 42.9764 26.2736 42.9449 26.6133C42.9134 26.9529 42.8661 27.2845 42.8032 27.6079L42.6614 28.5783L43.1811 29.4032C43.7165 30.3089 44.1181 31.255 44.3858 32.2416C44.6535 33.2282 44.7874 34.239 44.7874 35.2741C44.7874 38.347 43.7323 40.9671 41.622 43.1344ZM27.1654 22.4163L22.6299 21.3488C21.3701 21.0577 20.4331 20.6938 19.8189 20.2571C19.2047 19.8205 18.8976 19.2948 18.8976 18.6802C18.8976 18.2597 18.9843 17.8797 19.1575 17.54C19.3307 17.2004 19.5906 16.885 19.937 16.5939C20.5984 16.0763 21.5591 15.8175 22.8189 15.8175C23.5433 15.8175 24.1968 15.8984 24.7795 16.0602C25.3622 16.2219 25.8898 16.4645 26.3622 16.788C26.6142 16.9497 27.1811 17.5158 28.063 18.4862C28.6614 19.1331 29.2913 19.4566 29.9528 19.4566C30.2677 19.4566 30.5748 19.408 30.874 19.311C31.1732 19.214 31.4488 19.0684 31.7008 18.8743C32.1732 18.4862 32.4095 17.9363 32.4095 17.2246C32.4095 15.672 31.4016 14.3296 29.3858 13.1975C27.4961 12.0977 25.4173 11.5478 23.1496 11.5478C21.8583 11.5478 20.6693 11.6853 19.5827 11.9602C18.4961 12.2351 17.5276 12.6637 16.6772 13.246C15.6693 13.9253 14.9134 14.742 14.4094 15.6962C13.9055 16.6505 13.6535 17.7584 13.6535 19.0199C13.6535 22.481 15.5906 24.7129 19.4646 25.7156L25.6063 27.3168C27.1496 27.705 27.9213 28.546 27.9213 29.8399C27.9213 30.7132 27.5433 31.4572 26.7874 32.0718C25.9685 32.7511 24.8976 33.0907 23.5748 33.0907C22 33.0907 20.7402 32.7025 19.7953 31.9262C19.5748 31.7645 18.9764 31.069 18 29.8399C17.3701 29.0635 16.6772 28.6754 15.9213 28.6754C15.2598 28.6754 14.7087 28.8856 14.2677 29.3061C14.0472 29.5326 13.8898 29.7832 13.7953 30.0582C13.7008 30.3331 13.6535 30.6485 13.6535 31.0043C13.6535 32.5246 14.4567 33.867 16.063 35.0315C17.9213 36.4548 20.4252 37.1664 23.5748 37.1664C25.1496 37.1664 26.5512 36.9804 27.7795 36.6084C29.0079 36.2364 30.0472 35.6784 30.8976 34.9345C32.5354 33.5759 33.3543 31.7483 33.3543 29.4517C33.3858 25.7318 31.3228 23.3867 27.1654 22.4163Z" fill="#E0E0E0"/>
</svg>
