<svg width="64" height="52" viewBox="0 0 64 52" fill="none" xmlns="http://www.w3.org/2000/svg">
<path d="M56.2541 7.74586C57.3709 8.86264 57.3709 10.638 56.2541 11.7548L23.7817 44.2273C23.5196 44.4926 23.2074 44.7032 22.8634 44.8469C22.5193 44.9907 22.1501 45.0647 21.7772 45.0647C21.4043 45.0647 21.0351 44.9907 20.691 44.8469C20.3469 44.7032 20.0348 44.4926 19.7727 44.2273L7.74586 32.2004C7.48058 31.9384 7.26997 31.6262 7.12622 31.2822C6.98247 30.9381 6.90845 30.5689 6.90845 30.196C6.90845 29.8231 6.98247 29.4539 7.12622 29.1098C7.26997 28.7657 7.48058 28.4536 7.74586 28.1915C8.00794 27.9262 8.32007 27.7156 8.66415 27.5719C9.00824 27.4281 9.37743 27.3541 9.75034 27.3541C10.1232 27.3541 10.4924 27.4281 10.8365 27.5719C11.1806 27.7156 11.4927 27.9262 11.7548 28.1915L21.7772 38.2139L52.2452 7.74586C52.5073 7.48058 52.8194 7.26997 53.1635 7.12622C53.5076 6.98247 53.8768 6.90845 54.2497 6.90845C54.6226 6.90845 54.9918 6.98247 55.3358 7.12622C55.6799 7.26997 55.9921 7.48058 56.2541 7.74586ZM50.2121 1.67517L21.7772 30.1101L13.7879 22.1208C11.5544 19.8872 7.91767 19.8872 5.68412 22.1208L1.67517 26.1298C-0.558389 28.3633 -0.558389 32 1.67517 34.2336L17.711 50.2693C19.9445 52.5029 23.5812 52.5029 25.8148 50.2693L62.3248 13.7879C64.5584 11.5544 64.5584 7.91767 62.3248 5.68412L58.3159 1.67517C56.0537 -0.558389 52.4456 -0.558389 50.2121 1.67517Z" fill="#B71E32"/>
</svg>
