<svg width="64" height="64" viewBox="0 0 64 64" fill="none" xmlns="http://www.w3.org/2000/svg">
<path d="M32 5.33337C17.296 5.33337 5.33337 17.296 5.33337 32V43.048C5.33337 45.7787 7.72537 48 10.6667 48H13.3334C14.0406 48 14.7189 47.7191 15.219 47.219C15.7191 46.7189 16 46.0406 16 45.3334V31.6187C16 30.9115 15.7191 30.2332 15.219 29.7331C14.7189 29.233 14.0406 28.952 13.3334 28.952H10.912C12.3947 18.632 21.2747 10.6667 32 10.6667C42.7254 10.6667 51.6054 18.632 53.088 28.952H50.6667C49.9595 28.952 49.2812 29.233 48.7811 29.7331C48.281 30.2332 48 30.9115 48 31.6187V48C48 50.9414 45.608 53.3334 42.6667 53.3334H37.3334V50.6667H26.6667V58.6667H42.6667C48.5494 58.6667 53.3334 53.8827 53.3334 48C56.2747 48 58.6667 45.7787 58.6667 43.048V32C58.6667 17.296 46.704 5.33337 32 5.33337Z" fill="#B71E32"/>
</svg>
