<svg width="54" height="54" viewBox="0 0 54 54" fill="none" xmlns="http://www.w3.org/2000/svg">
<path d="M27 24.3334C30.5363 24.3334 33.9276 25.7381 36.4281 28.2386C38.9286 30.7391 40.3334 34.1305 40.3334 37.6667V53.6667H35V37.6667C35.0002 35.6261 34.2205 33.6627 32.8206 32.178C31.4207 30.6934 29.5064 29.7998 27.4694 29.68L27 29.6667C24.9595 29.6666 22.996 30.4462 21.5113 31.8461C20.0267 33.246 19.1331 35.1603 19.0134 37.1974L19 37.6667V53.6667H13.6667V37.6667C13.6667 34.1305 15.0715 30.7391 17.572 28.2386C20.0724 25.7381 23.4638 24.3334 27 24.3334ZM9.66671 32.3334C10.4107 32.3334 11.1334 32.4214 11.8267 32.584C11.3708 33.9414 11.1008 35.3542 11.024 36.784L11 37.6667V37.896C10.6935 37.7864 10.3747 37.7147 10.0507 37.6827L9.66671 37.6667C8.67235 37.6668 7.71366 38.0372 6.97759 38.7057C6.24152 39.3742 5.78083 40.2929 5.68537 41.2827L5.66671 41.6667V53.6667H0.333374V41.6667C0.333374 39.1914 1.3167 36.8174 3.06704 35.067C4.81738 33.3167 7.19135 32.3334 9.66671 32.3334ZM44.3334 32.3334C46.8087 32.3334 49.1827 33.3167 50.933 35.067C52.6834 36.8174 53.6667 39.1914 53.6667 41.6667V53.6667H48.3334V41.6667C48.3333 40.6724 47.9629 39.7137 47.2944 38.9776C46.6259 38.2415 45.7071 37.7808 44.7174 37.6854L44.3334 37.6667C43.8667 37.6667 43.4187 37.7467 43 37.8934V37.6667C43 35.8907 42.712 34.184 42.176 32.5894C42.8824 32.4184 43.6066 32.3324 44.3334 32.3334ZM9.66671 16.3334C11.4348 16.3334 13.1305 17.0358 14.3808 18.286C15.631 19.5362 16.3334 21.2319 16.3334 23C16.3334 24.7682 15.631 26.4638 14.3808 27.7141C13.1305 28.9643 11.4348 29.6667 9.66671 29.6667C7.8986 29.6667 6.2029 28.9643 4.95266 27.7141C3.70242 26.4638 3.00004 24.7682 3.00004 23C3.00004 21.2319 3.70242 19.5362 4.95266 18.286C6.2029 17.0358 7.8986 16.3334 9.66671 16.3334ZM44.3334 16.3334C46.1015 16.3334 47.7972 17.0358 49.0474 18.286C50.2977 19.5362 51 21.2319 51 23C51 24.7682 50.2977 26.4638 49.0474 27.7141C47.7972 28.9643 46.1015 29.6667 44.3334 29.6667C42.5653 29.6667 40.8696 28.9643 39.6193 27.7141C38.3691 26.4638 37.6667 24.7682 37.6667 23C37.6667 21.2319 38.3691 19.5362 39.6193 18.286C40.8696 17.0358 42.5653 16.3334 44.3334 16.3334ZM9.66671 21.6667C9.31309 21.6667 8.97395 21.8072 8.7239 22.0572C8.47385 22.3073 8.33337 22.6464 8.33337 23C8.33337 23.3537 8.47385 23.6928 8.7239 23.9429C8.97395 24.1929 9.31309 24.3334 9.66671 24.3334C10.0203 24.3334 10.3595 24.1929 10.6095 23.9429C10.8596 23.6928 11 23.3537 11 23C11 22.6464 10.8596 22.3073 10.6095 22.0572C10.3595 21.8072 10.0203 21.6667 9.66671 21.6667ZM44.3334 21.6667C43.9798 21.6667 43.6406 21.8072 43.3906 22.0572C43.1405 22.3073 43 22.6464 43 23C43 23.3537 43.1405 23.6928 43.3906 23.9429C43.6406 24.1929 43.9798 24.3334 44.3334 24.3334C44.687 24.3334 45.0261 24.1929 45.2762 23.9429C45.5262 23.6928 45.6667 23.3537 45.6667 23C45.6667 22.6464 45.5262 22.3073 45.2762 22.0572C45.0261 21.8072 44.687 21.6667 44.3334 21.6667ZM27 0.333374C29.829 0.333374 32.5421 1.45718 34.5425 3.45757C36.5429 5.45796 37.6667 8.17106 37.6667 11C37.6667 13.829 36.5429 16.5421 34.5425 18.5425C32.5421 20.5429 29.829 21.6667 27 21.6667C24.1711 21.6667 21.458 20.5429 19.4576 18.5425C17.4572 16.5421 16.3334 13.829 16.3334 11C16.3334 8.17106 17.4572 5.45796 19.4576 3.45757C21.458 1.45718 24.1711 0.333374 27 0.333374ZM27 5.66671C25.5856 5.66671 24.229 6.22861 23.2288 7.2288C22.2286 8.229 21.6667 9.58555 21.6667 11C21.6667 12.4145 22.2286 13.7711 23.2288 14.7713C24.229 15.7715 25.5856 16.3334 27 16.3334C28.4145 16.3334 29.7711 15.7715 30.7713 14.7713C31.7715 13.7711 32.3334 12.4145 32.3334 11C32.3334 9.58555 31.7715 8.229 30.7713 7.2288C29.7711 6.22861 28.4145 5.66671 27 5.66671Z" fill="#B71E32"/>
</svg>
