<svg width="54" height="54" viewBox="0 0 54 54" fill="none" xmlns="http://www.w3.org/2000/svg">
<path d="M12.6512 40.5168C5.41279 32.7344 5.54079 20.536 13.0608 12.9616C16.008 9.98016 19.8402 8.03152 23.9856 7.40641L23.7648 0.76001C17.9453 1.46266 12.535 4.11425 8.41439 8.28321C-1.66241 18.4272 -1.78401 34.808 8.02079 45.1824L2.44959 50.7888L20.0816 51.752L20.0336 33.0832L12.6512 40.5168ZM33.9216 2.24801L33.9696 20.9168L41.352 13.4864C48.5904 21.2752 48.4624 33.4736 40.9424 41.0416C37.9957 44.0238 34.1633 45.9726 30.0176 46.5968L30.2384 53.24C36.0578 52.5365 41.4686 49.8864 45.592 45.72C55.6656 35.5696 55.7872 19.1888 45.9824 8.82081L51.5536 3.20801L33.9216 2.24801Z" fill="#B71E32"/>
</svg>
