<svg width="60" height="48" viewBox="0 0 60 48" fill="none" xmlns="http://www.w3.org/2000/svg">
<g clip-path="url(#clip0)">
<path d="M45.9302 17.7183H31.8583V22.8867C31.8583 26.5507 28.868 29.5317 25.1927 29.5317C21.5173 29.5317 18.5271 26.5507 18.5271 22.8867V11.6638L12.5188 15.2633C10.732 16.3246 9.6396 18.2535 9.6396 20.3209V24.6864L2.23336 28.9503C0.816916 29.7625 0.326253 31.5714 1.1502 32.9835L8.55643 45.7753C9.37112 47.1874 11.1856 47.6673 12.6021 46.8551L22.1747 41.3452H34.8208C38.0888 41.3452 40.7458 38.6964 40.7458 35.4385H42.227C43.8657 35.4385 45.1895 34.1187 45.1895 32.4851V26.5784H45.9302C47.1614 26.5784 48.152 25.5908 48.152 24.3633V19.9333C48.152 18.7058 47.1614 17.7183 45.9302 17.7183ZM59.6039 14.2665L52.1977 1.47469C51.383 0.0626085 49.5685 -0.417315 48.152 0.394863L38.5795 5.90475H29.118C28.0071 5.90475 26.9239 6.21855 25.9796 6.79999L22.8782 8.72892C22.008 9.26422 21.4896 10.2148 21.4896 11.2301V22.8867C21.4896 24.9263 23.1467 26.5784 25.1927 26.5784C27.2387 26.5784 28.8958 24.9263 28.8958 22.8867V14.7649H45.9302C48.7908 14.7649 51.1145 17.0814 51.1145 19.9333V22.5636L58.5208 18.2997C59.9372 17.4783 60.4186 15.6786 59.6039 14.2665Z" fill="#B71E32"/>
</g>
<defs>
<clipPath id="clip0">
<rect width="60" height="47.25" fill="white"/>
</clipPath>
</defs>
</svg>
