<svg width="115" height="115" viewBox="0 0 115 115" fill="none" xmlns="http://www.w3.org/2000/svg">
<path d="M3.1001 53.5C5.2001 25.3 28.8001 3 57.5001 3C87.6001 3 112 27.4 112 57.5C112 87.6 87.6001 112 57.5001 112C36.6001 112 18.5001 100.3 9.4001 83.1" stroke="#B71E32" stroke-width="6" stroke-miterlimit="10" stroke-linecap="round" stroke-linejoin="round"/>
<path d="M3 66.5C3 66.2 3 65.8 3 65.5C3 64.1 3 62.8 3.1 61.5" stroke="#B71E32" stroke-width="6" stroke-miterlimit="10" stroke-linecap="round" stroke-linejoin="round"/>
<path d="M7.69991 99.0001L3.79991 85.0001C3.09991 82.5001 5.39991 80.2001 7.79991 80.9001L21.7999 84.5001C24.2999 85.1001 25.0999 88.2001 23.3999 90.1001L13.2999 100.5C11.4999 102.3 8.39991 101.5 7.69991 99.0001Z" fill="#B71E32" stroke="#B71E32" stroke-width="4" stroke-miterlimit="10" stroke-linecap="round" stroke-linejoin="round"/>
<path d="M55 65C53.3 65 52 63.7 52 62V36C52 34.3 53.3 33 55 33C56.7 33 58 34.3 58 36V62C58 63.7 56.7 65 55 65Z" fill="#B71E32" stroke="#B71E32" stroke-width="4" stroke-miterlimit="10" stroke-linecap="round" stroke-linejoin="round"/>
<path d="M53 62C53 60.3 54.3 59 56 59H72C73.7 59 75 60.3 75 62C75 63.7 73.7 65 72 65H56C54.3 65 53 63.7 53 62Z" fill="#B71E32" stroke="#B71E32" stroke-width="4" stroke-miterlimit="10" stroke-linecap="round" stroke-linejoin="round"/>
</svg>
