<svg width="112" height="123" viewBox="0 0 112 123" fill="none" xmlns="http://www.w3.org/2000/svg">
<g clip-path="url(#clip0)">
<path d="M76 76V26.2C76 21.9 79.4 17.7 83.6 17C86.6 16.5 89.4 17.6 91.3 19.5C93 21.2 94 23.5 94 26" stroke="#B71E32" stroke-width="4" stroke-miterlimit="10" stroke-linecap="round"/>
<path d="M94 34V32.6" stroke="#B71E32" stroke-width="4" stroke-miterlimit="10" stroke-linecap="round"/>
<path d="M94 67.3V39" stroke="#B71E32" stroke-width="4" stroke-miterlimit="10" stroke-linecap="round"/>
<path d="M36.4 99.5H36.2L34.9 95.2L36.4 99.5Z" stroke="#B71E32" stroke-width="4" stroke-miterlimit="10" stroke-linecap="round"/>
<path d="M50.5 56.5V60.4L32.5 71.9V56.7C32.5 52.4 35.9 48.2 40.1 47.5C43.1 47 45.9 48.1 47.8 50C49.5 51.7 50.5 54 50.5 56.5Z" stroke="#B71E32" stroke-width="4" stroke-miterlimit="10" stroke-linecap="round"/>
<path d="M14 38.6C22.1 30.5 31.5 21.3 31.7 21.1C33.5 19.4 35.7 18.4 37.9 19.7L43.4 23.1C43.8 23.4 44.4 23.3 44.7 22.9L55.1 12.5C55.4 12.2 55.2 11.6 54.7 11.6L53 11.7C50.8 11.8 48.8 10.5 48.2 8.4C47.5 5.5 49.5 2.9 52.3 2.7L66.2 2C66.3 2 66.4 2 66.4 2C67.7 2 68.9 2.5 69.7 3.5C70.8 4.3 71.6 5.5 71.7 7L72.5 21.6C72.6 24.1 70.7 26.2 68.2 26.3L67.1 26.4C64.6 26.5 62.5 24.6 62.4 22.1L62.3 19.5C62.3 19 61.7 18.8 61.3 19.1L47.9 32.5C46.2 34.2 43.5 33.5 41.5 32.5L36.8 29.7C36.4 29.5 35.9 29.5 35.6 29.9L9.70002 55.6C7.90002 57.4 5.10002 57.4 3.30002 55.6C1.60002 53.8 1.60002 51 3.30002 49.2C3.30002 49.2 5.00002 47.5 7.70002 44.9" stroke="#B71E32" stroke-width="4" stroke-miterlimit="10" stroke-linecap="round"/>
<path d="M37.5 102.8L36 98.9L34.4 94.7L31.8 87.8L31.5 87V86.9L30.2 83.6C28.9 80.1 26 77.7 22.6 76.9C20.5 76.4 18.3 76.5 16.1 77.3L9.10002 80C3.50002 82.1 0.700016 88.4 2.80002 94L10.2 113.3C12.3 118.9 18.6 121.7 24.2 119.6L31.2 116.9C36.8 114.6 39.6 108.4 37.5 102.8ZM24.1 113C20.4 113.7 17.2 110.8 17.4 107.1C17.6 104.6 19.5 102.4 21.9 101.9C25.6 101.2 28.8 104.1 28.6 107.8C28.5 110.3 26.6 112.5 24.1 113Z" stroke="#B71E32" stroke-width="4" stroke-miterlimit="10" stroke-linecap="round"/>
<path d="M105.6 77.5L84.4 92.9C81.2 95.2 77.5 96.9 73.6 97.7L38.7 105.4C38.6 105.4 38.5 105.4 38.4 105.2L36.4 99.4L34.9 95.2L32.8 88.3L32.5 87.5V87.4L31.5 84.1C30.5 80.8 28 78.4 25 77.3C24.8 77.2 24.8 77 24.9 76.9L32.5 72L50.5 60.5L54.5 58L55.1 57.6C56.2 56.9 57.4 56.6 58.7 56.6C60.9 56.6 63.1 57.7 64.3 59.7C66.2 62.7 65.3 66.6 62.4 68.5L54.5 74L53.8 74.5C52.7 75.3 53.1 77.1 54.5 77.3L71.7 79.3C72 79.3 72.2 79.4 72.5 79.4C75.3 79.5 78.2 78.7 80.5 77.1L81.5 76.4L94 67.3L97.6 64.8C98.9 64 100.2 63.6 101.6 63.6C104.1 63.6 106.5 64.8 107.9 67.1C110.1 70.6 109.1 75.2 105.6 77.5Z" stroke="#B71E32" stroke-width="4" stroke-miterlimit="10" stroke-linecap="round"/>
<path d="M54.5 73.6999L61.8 68.1999C64.5 66.2999 65.3 62.4 63.6 59.4C62.4 57.4 60.5 56.2999 58.4 56.2999C57.3 56.2999 56.1 56.5999 55.1 57.2999L54.5 57.7V42.7C54.5 38.4 57.6 34.2 61.5 33.5C64.3 33 66.8 34.1 68.6 36C70.1 37.6 71 39.9 71 42.4V79C70.7 79 70.5 79 70.2 78.9L54.5 76.9" stroke="#B71E32" stroke-width="4" stroke-miterlimit="10" stroke-linecap="round"/>
</g>
<defs>
<clipPath id="clip0">
<rect width="111.1" height="122.2" fill="white"/>
</clipPath>
</defs>
</svg>
