<svg width="112" height="112" viewBox="0 0 112 112" fill="none" xmlns="http://www.w3.org/2000/svg">
<path d="M56 109C26.7 109 3 85.3 3 56C3 26.7 26.7 3 56 3C85.3 3 109 26.7 109 56C109 68 105 79.1 98.3 88" stroke="#B71E32" stroke-width="6" stroke-miterlimit="10" stroke-linecap="round"/>
<path d="M87.1 98.9C85.7 99.9 84.3 100.8 82.9 101.7" stroke="#B71E32" stroke-width="6" stroke-miterlimit="10" stroke-linecap="round"/>
<path d="M27.5 44.5C27.5 39.5 31.5 35.5 36.5 35.5C41.5 35.5 45.5 39.5 45.5 44.5" stroke="#B71E32" stroke-width="6" stroke-miterlimit="10" stroke-linecap="round"/>
<path d="M67.5 44.5C67.5 39.5 71.5 35.5 76.5 35.5C81.5 35.5 85.5 39.5 85.5 44.5" stroke="#B71E32" stroke-width="6" stroke-miterlimit="10" stroke-linecap="round"/>
<path d="M35.5 66.5C39.5 72.5 47.8 77.5 55.5 77.5C63.2 77.5 71.5 73.5 76.5 66.5" stroke="#B71E32" stroke-width="6" stroke-miterlimit="10" stroke-linecap="round"/>
<path d="M92 95.5C92.8284 95.5 93.5 94.8284 93.5 94C93.5 93.1716 92.8284 92.5 92 92.5C91.1716 92.5 90.5 93.1716 90.5 94C90.5 94.8284 91.1716 95.5 92 95.5Z" stroke="#B71E32" stroke-width="4" stroke-miterlimit="10" stroke-linecap="round"/>
</svg>
