<svg width="122" height="121" viewBox="0 0 122 121" fill="none" xmlns="http://www.w3.org/2000/svg">
<g clip-path="url(#clip0)">
<path d="M4.2 108.9L11.9 116.6C13.5 118.2 16.1 118.2 17.7 116.6L42.4 91.9001C44 90.3001 44 87.7001 42.4 86.1001L34.7 78.4001C33.1 76.8001 30.5 76.8001 28.9 78.4001L4.2 103.1C2.6 104.7 2.6 107.3 4.2 108.9Z" stroke="#B71E32" stroke-width="6" stroke-miterlimit="10" stroke-linecap="round" stroke-linejoin="round"/>
<path d="M49.2887 78.0028L42.9955 71.7096L35.9952 78.7099L42.2884 85.0031L49.2887 78.0028Z" stroke="#B71E32" stroke-width="6" stroke-miterlimit="10" stroke-linecap="round" stroke-linejoin="round"/>
<path d="M61.2 17.8001C76.8 9.50006 96.2 15.3001 104.5 30.9001C112.8 46.5001 107 65.9001 91.4 74.2001C75.8 82.5001 56.4 76.7001 48.1 61.1001C43.2 51.9001 43.2 41.3001 47.3 32.5001" stroke="#B71E32" stroke-width="6" stroke-miterlimit="10" stroke-linecap="round" stroke-linejoin="round"/>
<path d="M113 24.9001C124.4 45.4001 117 71.3001 96.5 82.7001C76 94.1 50.1 86.7 38.7 66.2C27.3 45.7 34.7 19.8001 55.2 8.40005C72.2 -0.999949 92.8 2.40005 105.9 15.5001" stroke="#B71E32" stroke-width="6" stroke-miterlimit="10" stroke-linecap="round" stroke-linejoin="round"/>
<path d="M97.3001 45.5C97.3001 45.5 88.5001 56 76.3001 56C64.1001 56 54.3 45.5 54.3 45.5C54.3 45.5 64.2001 35 76.3001 35C88.4001 35 97.3001 45.5 97.3001 45.5Z" stroke="#B71E32" stroke-width="6" stroke-miterlimit="10" stroke-linecap="round" stroke-linejoin="round"/>
<path d="M75.8001 55C82.7036 55 88.3001 50.5228 88.3001 45C88.3001 39.4772 82.7036 35 75.8001 35C68.8965 35 63.3 39.4772 63.3 45C63.3 50.5228 68.8965 55 75.8001 55Z" stroke="#B71E32" stroke-width="4" stroke-miterlimit="10" stroke-linecap="round" stroke-linejoin="round"/>
<path d="M75.8 47C76.6285 47 77.3 46.3284 77.3 45.5C77.3 44.6716 76.6285 44 75.8 44C74.9716 44 74.3 44.6716 74.3 45.5C74.3 46.3284 74.9716 47 75.8 47Z" stroke="#B71E32" stroke-width="6" stroke-miterlimit="10" stroke-linecap="round" stroke-linejoin="round"/>
<path d="M50.8 27C51.6285 27 52.3 26.3284 52.3 25.5C52.3 24.6716 51.6285 24 50.8 24C49.9716 24 49.3 24.6716 49.3 25.5C49.3 26.3284 49.9716 27 50.8 27Z" stroke="#B71E32" stroke-width="4" stroke-miterlimit="10" stroke-linecap="round" stroke-linejoin="round"/>
</g>
<defs>
<clipPath id="clip0">
<rect width="121.3" height="120.8" fill="white"/>
</clipPath>
</defs>
</svg>
